<svg viewBox="0 0 3302 631" fill="none" xmlns="http://www.w3.org/2000/svg">
  <path d="M0 120H475V595H0V120Z" fill="#DF3B3B" />
  <path d="M23 255V224H242V255H150V515H115V255H23ZM326 520C312 520 300 518 288 512C277 507 268 499 261 489C255 479 251 467 251 453C250.362 443.109 252.565 433.241 257.349 424.559C262.132 415.878 269.297 408.745 278 404C287 400 296 396 306 394C326.337 389.052 347.096 386.039 368 385C377 384 383 383 387 380C390 378 392 374 392 369V368C392 354 389 343 381 335C373 327 362 324 346 324C330 324 318 327 309 334C300 341 293 349 290 356L258 345C262.581 333.519 269.894 323.329 279.304 315.313C288.714 307.297 299.937 301.698 312 299C330.618 294.122 350.086 293.439 369 297C379 298 387 302 396 307C405 312 412 319 417 330C423 340 426 354 426 371V515H392V485H391C388 490 385 495 379 501C374 506 367 511 358 514C349 518 339 520 326 520ZM331 490C344 490 355 487 365 482C373.165 477.404 379.965 470.725 384.708 462.644C389.451 454.563 391.967 445.37 392 436V405C391 407 388 409 383 410C371.596 413.309 359.855 415.322 348 416C335.284 418.057 322.614 420.391 310 423C302 426 296 430 292 435C287 440 285 446 285 455C285 466 289 475 298 481C307 487 318 490 331 490ZM449 148V163H313V148H449ZM154 564V579H18V564H154Z" fill="#F2F2F2"/>
  <path d="M492 515V224H525V331H528L538 317C543 311 549 306 557 301C566 296 577 294 591 294C608.233 293.818 625.131 298.759 639.552 308.195C653.972 317.63 665.266 331.137 672 347C680 364 684 384 684 406C684 430 680 450 672 467C665 483 654 496 640 506C626 515 610 520 592 520C578 520 566 517 558 513C550 508 543 503 538 497L528 481H524V515H492ZM525 406C525 422 527 437 532 450C537 462 544 472 553 479C562 486 574 489 587 489C601 489 613 486 622 478C632 471 639 461 643 448C648 436 651 421 651 406C651 391 648 377 644 364C639 352 632 342 622 335C613 328 601 324 587 324C574.841 323.645 562.896 327.259 552.973 334.295C543.05 341.331 535.688 351.408 532 363C527 375 525 390 525 406ZM827 520C808.582 520.987 790.286 516.476 774.438 507.038C758.59 497.601 745.907 483.664 738 467C729 450 725 430 725 408C725 385 729 366 737 349C744.303 332.366 756.367 318.266 771.672 308.478C786.977 298.69 804.836 293.652 823 294C835 294 846 296 857 300C869.08 304.09 880.055 310.908 889.073 319.927C898.091 328.945 904.91 339.92 909 352C915 366 917 383 917 403V417H749V388H883C883 376 881 365 876 355C871.215 345.393 863.769 337.364 854.55 331.868C845.331 326.372 834.727 323.641 824 324C810 324 799 327 789 334C779 341 772 349 767 360C761 370 759 381 759 393V413C759 429 762 443 767 455C773 466 781 475 791 481C802 486 813 489 827 489C836 489 844 488 851 486C858 483 864 479 869 474C875 469 879 463 882 455L914 464C911 475 905 485 897 493C889 502 879 508 867 513C855 517 842 520 827 520ZM1002 224V515H968V224H1002ZM1127 520C1114 520 1101 518 1090 512C1079 507 1070 499 1063 489C1056 479 1053 467 1053 453C1053 441 1055 430 1060 423C1065 415 1072 409 1080 404C1088 400 1097 396 1107 394C1127.66 388.99 1148.76 385.976 1170 385C1178 384 1184 383 1188 380C1192 378 1194 374 1194 369V368C1194 354 1190 343 1182 335C1175 327 1163 324 1148 324C1132 324 1119 327 1110 334C1101 341 1095 349 1091 356L1059 345C1063.58 333.519 1070.89 323.329 1080.3 315.313C1089.71 307.297 1100.94 301.698 1113 299C1131.94 293.971 1151.76 293.288 1171 297C1180 298 1189 302 1197 307C1206 312 1213 319 1219 330C1225 340 1227 354 1227 371V515H1194V485H1192C1190 490 1186 495 1181 501C1176 506 1169 511 1160 514C1151 518 1140 520 1127 520ZM1133 490C1146 490 1157 487 1166 482C1174.35 477.534 1181.35 470.911 1186.28 462.821C1191.2 454.731 1193.87 445.47 1194 436V405C1193 407 1189 409 1185 410C1173.6 413.309 1161.86 415.322 1150 416C1137.28 418.06 1124.61 420.394 1112 423C1104 426 1098 430 1093 435C1089 440 1087 446 1087 455C1087 466 1091 475 1099 481C1108 487 1119 490 1133 490ZM1401 597V297H1434V331H1438L1448 317C1452 311 1459 306 1467 301C1475 296 1486 294 1501 294C1518.23 293.818 1535.13 298.759 1549.55 308.195C1563.97 317.63 1575.27 331.137 1582 347C1590 364 1594 384 1594 406C1594 430 1590 450 1582 467C1574 483 1563 496 1549 506C1535 515 1519 520 1501 520C1487 520 1476 517 1467 513C1459 508 1453 503 1448 497L1438 481H1435V597H1401ZM1434 406C1434 422 1437 437 1441 450C1446 462 1453 472 1463 479C1472 486 1483 489 1497 489C1511 489 1522 486 1532 478C1541 471 1548 461 1553 448C1558 436 1560 421 1560 406C1560 391 1558 377 1553 364C1548 352 1541 342 1532 335C1523 328 1511 324 1497 324C1484.67 323.422 1472.5 326.932 1462.37 333.985C1452.25 341.037 1444.73 351.237 1441 363C1436 375 1434 390 1434 406ZM1736 520C1717.58 520.987 1699.29 516.476 1683.44 507.038C1667.59 497.601 1654.91 483.664 1647 467C1639 450 1635 430 1635 408C1635 385 1639 366 1647 349C1655 331 1667 318 1681 308C1693.7 300.503 1707.86 295.819 1722.52 294.267C1737.19 292.714 1752.01 294.328 1766 299C1778.37 303.058 1789.62 309.97 1798.82 319.177C1808.03 328.384 1814.94 339.628 1819 352C1824 366 1827 383 1827 403V417H1659V388H1793C1793 376 1790 365 1785 355C1780.21 345.393 1772.77 337.364 1763.55 331.868C1754.33 326.372 1743.73 323.641 1733 324C1720 324 1708 327 1698 334C1689 341 1681 349 1676 360C1671 370 1668 381 1668 393V413C1668 429 1671 443 1677 455C1682 466 1690 475 1701 481C1711 486 1723 489 1736 489C1745 489 1753 488 1760 486C1767.01 483.509 1773.41 479.542 1778.76 474.366C1784.11 469.191 1788.28 462.928 1791 456L1823 464C1820 475 1814 485 1806 493C1798 502 1788 508 1776 513C1764 517 1751 520 1736 520ZM1878 515V297H1910V330H1912C1916 319 1924 310 1934 303C1944 297 1956 293 1969 293C1975.01 293.187 1981.01 293.521 1987 294V328C1980.09 326.595 1973.05 325.924 1966 326C1956 326 1946 328 1938 332C1930 337 1923 343 1918 351C1914 358 1911 367 1911 377V515H1878ZM2027 515V297H2060V515H2027ZM2044 260C2037 260 2031 258 2027 254C2022 249 2020 244 2020 238C2020 231 2022 226 2027 222C2031 217 2037 215 2044 215C2050 215 2056 217 2060 222C2065 226 2067 231 2067 238C2067 244 2065 249 2060 254C2056 258 2050 260 2044 260ZM2654 520C2636.71 520.456 2619.69 515.627 2605.22 506.156C2590.75 496.686 2579.51 483.026 2573 467C2565 450 2561 430 2561 406C2561 384 2565 364 2573 347C2581 330 2592 317 2606 308C2620 299 2636 294 2654 294C2669 294 2680 296 2688 301C2696 306 2703 311 2707 317L2717 331H2720V224H2754V515H2721V481H2717L2707 497C2702 503 2696 508 2688 513C2679 517 2668 520 2654 520ZM2658 489C2672 489 2683 486 2692 479C2702 472 2709 462 2714 450C2718 437 2721 422 2721 406C2721 390 2719 375 2714 363C2709 351 2702 341 2693 334C2683 328 2672 324 2658 324C2644 324 2632 328 2623 335C2613 342 2606 352 2602 364C2597 377 2595 391 2595 406C2595 421 2597 436 2602 448C2607 461 2614 471 2623 478C2633 486 2644 489 2658 489ZM2820 515V297H2853V515H2820ZM2837 260C2830 260 2825 258 2820 254C2815 249 2813 244 2813 238C2813 231 2815 226 2820 222C2825 217 2830 215 2837 215C2843 215 2849 217 2854 222C2858 226 2861 231 2861 238C2861 244 2858 249 2854 254C2849 258 2843 260 2837 260ZM3003 520C2983 520 2965 515 2951 505C2936.1 495.166 2924.3 481.292 2917 465C2909 448 2905 429 2905 407C2905 385 2909 365 2917 348C2925 331 2936 318 2951 308C2966 299 2983 294 3003 294C3018 294 3032 297 3044 303C3057 308 3067 316 3075 326C3082 337 3087 349 3089 362H3056C3053 352 3047 343 3039 336C3030 328 3018 324 3003 324C2990 324 2979 328 2969 334C2959 341 2952 351 2946 363C2941 375 2938 389 2938 406C2938 423 2941 437 2946 450C2951 462 2959 472 2969 479C2979 486 2990 489 3003 489C3012 489 3020 488 3027 485C3034.18 482.038 3040.56 477.41 3045.6 471.498C3050.64 465.587 3054.21 458.561 3056 451H3089C3087.34 463.774 3082.55 475.939 3075.05 486.409C3067.54 496.878 3057.56 505.327 3046 511C3034 517 3020 520 3003 520ZM3202 520C3189 520 3176 518 3165 512C3154 507 3145 499 3138 489C3131 479 3128 467 3128 453C3128 441 3130 430 3135 423C3140 415 3147 409 3155 404C3163 400 3172 396 3182 394C3202.66 388.99 3223.76 385.976 3245 385C3253 384 3259 383 3263 380C3267 378 3269 374 3269 369V368C3269 354 3265 343 3257 335C3250 327 3238 324 3223 324C3207 324 3194 327 3185 334C3176 341 3170 349 3166 356L3134 345C3138.58 333.519 3145.89 323.329 3155.3 315.313C3164.71 307.297 3175.94 301.698 3188 299C3206.94 293.971 3226.76 293.288 3246 297C3255 298 3264 302 3272 307C3281 312 3288 319 3294 330C3300 340 3302 354 3302 371V515H3269V485H3267C3265 490 3261 495 3256 501C3251 506 3244 511 3235 514C3226 518 3215 520 3202 520ZM3208 490C3221 490 3232 487 3241 482C3249.35 477.534 3256.35 470.911 3261.28 462.821C3266.2 454.731 3268.87 445.47 3269 436V405C3268 407 3264 409 3260 410C3248.6 413.309 3236.86 415.322 3225 416C3212.28 418.06 3199.61 420.394 3187 423C3179 426 3173 430 3168 435C3164 440 3162 446 3162 455C3162 466 3166 475 3174 481C3183 487 3194 490 3208 490Z" class="fillColor" />
  <path d="M2318 120L2411 15" class="strokeColor" stroke-width="30" stroke-linecap="round" />
  <g>
	<path
		d="M2316 595.003C2289.7 595.135 2263.63 590.052 2239.31 580.048C2214.98 570.044 2192.88 555.317 2174.29 536.719C2155.69 518.121 2140.96 496.021 2130.96 471.696C2120.95 447.371 2115.87 421.304 2116 395.003C2115.87 368.701 2120.95 342.634 2130.96 318.309C2140.96 293.984 2155.69 271.884 2174.29 253.286C2192.88 234.688 2214.98 219.961 2239.31 209.957C2263.63 199.953 2289.7 194.87 2316 195.003C2342.3 194.87 2368.37 199.953 2392.7 209.957C2417.02 219.961 2439.12 234.688 2457.72 253.286C2476.32 271.884 2491.04 293.984 2501.05 318.309C2511.05 342.634 2516.14 368.701 2516 395.003C2516.14 421.304 2511.05 447.371 2501.05 471.696C2491.04 496.021 2476.32 518.121 2457.72 536.719C2439.12 555.317 2417.02 570.044 2392.7 580.048C2368.37 590.052 2342.3 595.135 2316 595.003ZM2316 207.003C2266.14 207.003 2218.32 226.81 2183.07 262.066C2147.81 297.323 2128 345.142 2128 395.003C2128 444.863 2147.81 492.682 2183.07 527.939C2218.32 563.195 2266.14 583.003 2316 583.003C2365.86 583.003 2413.68 563.195 2448.94 527.939C2484.2 492.682 2504 444.863 2504 395.003C2504 345.142 2484.2 297.323 2448.94 262.066C2413.68 226.81 2365.86 207.003 2316 207.003Z"
		fill="#5CC4E0" />
	<path
		d="M2457 228.002C2449.18 228.002 2441.68 231.11 2436.14 236.643C2430.61 242.175 2427.5 249.679 2427.5 257.502C2427.5 265.326 2430.61 272.83 2436.14 278.362C2441.68 283.894 2449.18 287.002 2457 287.002C2464.83 287.002 2472.33 283.894 2477.86 278.362C2483.39 272.83 2486.5 265.326 2486.5 257.502C2486.5 249.679 2483.39 242.175 2477.86 236.643C2472.33 231.11 2464.83 228.002 2457 228.002Z"
		fill="#FAEC8E" />
	<path
		d="M2469 275.002C2463.91 275.109 2458.88 273.872 2454.42 271.417C2449.95 268.961 2446.22 265.373 2443.58 261.014C2440.94 256.655 2439.5 251.679 2439.4 246.586C2439.3 241.493 2440.54 236.463 2443 232.002C2439.13 234.248 2435.84 237.359 2433.37 241.09C2430.9 244.822 2429.33 249.074 2428.78 253.514C2428.23 257.953 2428.72 262.46 2430.2 266.681C2431.68 270.903 2434.11 274.724 2437.32 277.847C2440.52 280.97 2444.4 283.31 2448.66 284.683C2452.92 286.056 2457.43 286.426 2461.86 285.763C2466.28 285.1 2470.49 283.423 2474.16 280.862C2477.83 278.302 2480.86 274.927 2483 271.002C2479 273.002 2474 275.002 2469 275.002Z"
		fill="#FBC96C" />
	<path
		d="M2467 256.002C2469.26 256.002 2471.42 255.107 2473.01 253.513C2474.61 251.919 2475.5 249.757 2475.5 247.502C2475.5 245.248 2474.61 243.086 2473.01 241.492C2471.42 239.898 2469.26 239.002 2467 239.002C2464.75 239.002 2462.59 239.898 2460.99 241.492C2459.4 243.086 2458.5 245.248 2458.5 247.502C2458.5 249.757 2459.4 251.919 2460.99 253.513C2462.59 255.107 2464.75 256.002 2467 256.002Z"
		fill="#fdfab3" />
	<animateTransform attributeName="transform" type="rotate" from="0 2316 395.003" to="360 2316 395.003" dur="5s" repeatCount="indefinite" />
  </g>
  <g>
	<path
		d="M2317 522.002C2300.46 521.937 2284.08 518.613 2268.82 512.22C2253.56 505.827 2239.71 496.491 2228.05 484.744C2204.52 461.021 2191.37 428.92 2191.5 395.502C2191.64 362.085 2205.04 330.089 2228.76 306.553C2252.48 283.018 2284.59 269.87 2318 270.002C2351.42 270.135 2383.42 283.537 2406.95 307.261C2430.49 330.984 2443.64 363.085 2443.5 396.502C2443.37 429.92 2429.97 461.916 2406.24 485.451C2382.52 508.987 2350.42 522.135 2317 522.002ZM2317 283.002C2286.9 283.135 2258.08 295.22 2236.89 316.599C2215.7 337.979 2203.87 366.9 2204 397.002C2204.14 427.105 2216.22 455.921 2237.6 477.113C2258.98 498.304 2287.9 510.135 2318 510.002C2348.1 509.87 2376.92 497.785 2398.11 476.406C2419.3 455.026 2431.14 426.105 2431 396.002C2430.87 365.9 2418.78 337.084 2397.41 315.892C2376.03 294.701 2347.1 282.87 2317 283.002Z"
		fill="#5CC4E0" />
	<path
		d="M2274 474.002C2266.18 474.002 2258.68 477.11 2253.14 482.643C2247.61 488.175 2244.5 495.679 2244.5 503.502C2244.5 511.326 2247.61 518.83 2253.14 524.362C2258.68 529.894 2266.18 533.002 2274 533.002C2281.83 533.002 2289.33 529.894 2294.86 524.362C2300.39 518.83 2303.5 511.326 2303.5 503.502C2303.5 495.679 2300.39 488.175 2294.86 482.643C2289.33 477.11 2281.83 474.002 2274 474.002Z"
		fill="#FAEC8E" />
	<path
		d="M2287 519.002C2282.05 519.016 2277.18 517.76 2272.85 515.356C2268.52 512.951 2264.87 509.478 2262.27 505.267C2259.66 501.056 2258.18 496.247 2257.95 491.299C2257.73 486.352 2258.78 481.43 2261 477.002C2256.92 479.079 2253.39 482.092 2250.7 485.794C2248.01 489.497 2246.23 493.784 2245.52 498.305C2244.8 502.826 2245.16 507.452 2246.58 511.806C2247.99 516.159 2250.42 520.116 2253.65 523.353C2256.89 526.59 2260.85 529.014 2265.2 530.428C2269.55 531.842 2274.18 532.206 2278.7 531.489C2283.22 530.772 2287.51 528.995 2291.21 526.303C2294.91 523.612 2297.93 520.082 2300 516.002C2297 518.002 2292 519.002 2287 519.002Z"
		fill="#FBC96C" />
	<path
		d="M2284 502.002C2285.86 502.002 2287.64 501.265 2288.95 499.952C2290.27 498.639 2291 496.859 2291 495.002C2291 493.146 2290.27 491.365 2288.95 490.053C2287.64 488.74 2285.86 488.002 2284 488.002C2282.15 488.002 2280.37 488.74 2279.05 490.053C2277.74 491.365 2277 493.146 2277 495.002C2277 496.859 2277.74 498.639 2279.05 499.952C2280.37 501.265 2282.15 502.002 2284 502.002Z"
		fill="#fdfab3" />
	<animateTransform attributeName="transform" type="rotate" from="0 2316 395.003" to="360 2316 395.003" dur="5s"
		repeatCount="indefinite" />
	</g>
  <g>
	<path
		d="M2317 562.002C2295.2 561.937 2273.63 557.578 2253.52 549.175C2233.4 540.772 2215.14 528.49 2199.77 513.029C2184.4 497.568 2172.23 479.231 2163.95 459.066C2155.67 438.901 2151.44 417.302 2151.5 395.502C2151.57 373.703 2155.93 352.13 2164.33 332.015C2172.73 311.9 2185.02 293.637 2200.48 278.269C2215.94 262.901 2234.27 250.729 2254.44 242.447C2274.6 234.166 2296.2 229.937 2318 230.002C2362.03 230.135 2404.2 247.751 2435.24 278.976C2466.27 310.201 2483.64 352.477 2483.5 396.502C2483.37 440.528 2465.75 482.698 2434.53 513.736C2403.3 544.773 2361.03 562.135 2317 562.002ZM2317 243.002C2296.84 243.068 2276.9 247.104 2258.3 254.878C2239.7 262.653 2222.82 274.015 2208.61 288.315C2194.4 302.615 2183.15 319.574 2175.5 338.222C2167.84 356.871 2163.94 376.845 2164 397.002C2164.07 417.16 2168.1 437.108 2175.88 455.706C2183.65 474.305 2195.01 491.19 2209.32 505.397C2223.62 519.604 2240.57 530.856 2259.22 538.509C2277.87 546.163 2297.84 550.068 2318 550.002C2358.71 549.87 2397.7 533.57 2426.4 504.69C2455.09 475.809 2471.14 436.713 2471 396.002C2470.87 355.292 2454.57 316.301 2425.69 287.608C2396.81 258.915 2357.71 242.87 2317 243.002Z"
		fill="#5293C4" />
	<path
		d="M2204 258.002C2196.18 258.002 2188.68 261.11 2183.14 266.643C2177.61 272.175 2174.5 279.679 2174.5 287.502C2174.5 295.326 2177.61 302.83 2183.14 308.362C2188.68 313.894 2196.18 317.002 2204 317.002C2211.83 317.002 2219.33 313.894 2224.86 308.362C2230.39 302.83 2233.5 295.326 2233.5 287.502C2233.5 279.679 2230.39 272.175 2224.86 266.643C2219.33 261.11 2211.83 258.002 2204 258.002Z"
		fill="#FAEC8E" />
	<path
		d="M2218 306.002C2212.53 306.292 2207.09 305.027 2202.31 302.352C2197.53 299.678 2193.6 295.704 2190.99 290.891C2188.37 286.078 2187.17 280.622 2187.53 275.155C2187.89 269.689 2189.78 264.435 2193 260.002C2188.55 261.682 2184.55 264.398 2181.35 267.926C2178.15 271.455 2175.84 275.695 2174.61 280.295C2173.37 284.895 2173.25 289.722 2174.25 294.379C2175.25 299.036 2177.34 303.387 2180.36 307.073C2183.38 310.76 2187.23 313.675 2191.59 315.578C2195.96 317.481 2200.72 318.317 2205.47 318.017C2210.22 317.717 2214.84 316.289 2218.93 313.852C2223.02 311.415 2226.47 308.039 2229 304.002L2218 306.002Z"
		fill="#FBC96C" />
	<path
		d="M2213 290.002C2214.36 290.474 2215.81 290.615 2217.23 290.412C2218.65 290.21 2220 289.67 2221.17 288.838C2222.35 288.006 2223.3 286.906 2223.96 285.63C2224.62 284.354 2224.96 282.939 2224.96 281.502C2224.96 280.066 2224.62 278.651 2223.96 277.375C2223.3 276.099 2222.35 274.999 2221.17 274.167C2220 273.335 2218.65 272.795 2217.23 272.592C2215.81 272.39 2214.36 272.53 2213 273.002C2211.24 273.617 2209.71 274.765 2208.62 276.288C2207.54 277.811 2206.96 279.634 2206.96 281.502C2206.96 283.371 2207.54 285.194 2208.62 286.717C2209.71 288.24 2211.24 289.388 2213 290.002Z"
		fill="#fdfab3" />
	<animateTransform attributeName="transform" type="rotate" from="0 2316 395.003" to="360 2316 395.003" dur="5s"
		repeatCount="indefinite" />
	</g>
	<path
		d="M2317 315.002C2296.05 315.002 2275.96 323.326 2261.14 338.141C2246.33 352.956 2238 373.05 2238 394.002C2238 414.955 2246.33 435.049 2261.14 449.864C2275.96 464.679 2296.05 473.002 2317 473.002C2337.95 473.002 2358.05 464.679 2372.86 449.864C2387.68 435.049 2396 414.955 2396 394.002C2396 373.05 2387.68 352.956 2372.86 338.141C2358.05 323.326 2337.95 315.002 2317 315.002Z"
		fill="#FF675C" />
	<path
		d="M2343 454.002C2327.68 454.083 2312.66 449.706 2299.78 441.403C2286.9 433.1 2276.71 421.231 2270.46 407.24C2264.21 393.25 2262.16 377.743 2264.56 362.609C2266.97 347.474 2273.72 333.366 2284 322.002C2273.51 327.02 2264.26 334.291 2256.9 343.297C2249.55 352.302 2244.27 362.821 2241.45 374.101C2238.63 385.382 2238.33 397.146 2240.58 408.554C2242.83 419.962 2247.57 430.733 2254.47 440.097C2261.36 449.462 2270.23 457.19 2280.46 462.729C2290.68 468.269 2302 471.483 2313.61 472.142C2325.22 472.802 2336.83 470.891 2347.62 466.545C2358.4 462.199 2368.09 455.526 2376 447.002C2366 452.002 2354 454.002 2343 454.002Z"
		fill="#DB3D5A" />
	<style>
    .fillColor {
      fill: #777;
    }
	.strokeColor {
      stroke: #777;
    }
    @media (prefers-color-scheme: dark) {
	  .fillColor {
        fill: #eee;
      }
	  .strokeColor {
        stroke: #eee;
      }
    }
  </style>
</svg>
